<svg width="512" height="512" viewBox="0 0 512 512" fill="none" xmlns="http://www.w3.org/2000/svg">
  <rect width="512" height="512" rx="128" fill="#10b981"/>
  <path d="M256 128C185 128 128 185 128 256C128 327 185 384 256 384C327 384 384 327 384 256C384 185 327 128 256 128ZM256 341C209 341 171 303 171 256C171 209 209 171 256 171C303 171 341 209 341 256C341 303 303 341 256 341Z" fill="white" fill-opacity="0.2"/>
  <path d="M256 160C203 160 160 203 160 256C160 309 203 352 256 352C309 352 352 309 352 256C352 203 309 160 256 160ZM256 320C223 320 192 289 192 256C192 223 223 192 256 192C289 192 320 223 320 256C320 289 289 320 256 320Z" fill="white"/>
  <path d="M200 240L236 272L312 200" stroke="white" stroke-width="24" stroke-linecap="round" stroke-linejoin="round"/>
</svg>
